<svg width="12" height="12" viewBox="0 0 24 24" fill="none" xmlns="http://www.w3.org/2000/svg">
              <path d="M12.0863 18.9353C12.4317 18.9353 12.729 18.8106 12.9784 18.5612C13.2278 18.3118 13.3525 18.0144 13.3525 17.6691C13.3525 17.3237 13.2326 17.0312 12.9928 16.7914C12.753 16.5516 12.4508 16.4317 12.0863 16.4317C11.741 16.4317 11.4484 16.5516 11.2086 16.7914C10.9688 17.0312 10.8489 17.3237 10.8489 17.6691C10.8489 18.0144 10.9688 18.3118 11.2086 18.5612C11.4484 18.8106 11.741 18.9353 12.0863 18.9353ZM10.9065 14.5899H12.9784C12.9784 14.0719 13.036 13.5971 13.1511 13.1655C13.2662 12.7338 13.6595 12.2302 14.3309 11.6547C14.9257 11.1942 15.3477 10.7146 15.5971 10.2158C15.8465 9.71703 15.9712 9.16067 15.9712 8.54676C15.9712 7.47242 15.6307 6.61871 14.9496 5.98561C14.2686 5.35252 13.3525 5.03597 12.2014 5.03597C11.1655 5.03597 10.2686 5.29496 9.51079 5.81295C8.753 6.33094 8.20144 7.04077 7.85612 7.94245L9.69784 8.63309C9.88969 8.11511 10.1871 7.69305 10.5899 7.36691C10.9928 7.04077 11.4916 6.8777 12.0863 6.8777C12.6619 6.8777 13.1415 7.04077 13.5252 7.36691C13.9089 7.69305 14.1007 8.11511 14.1007 8.63309C14.1007 9.03597 13.976 9.42446 13.7266 9.79856C13.4772 10.1727 13.1223 10.5516 12.6619 10.9353C12.0671 11.4532 11.6259 11.9664 11.3381 12.4748C11.0504 12.9832 10.9065 13.6883 10.9065 14.5899ZM11.9712 24C10.3022 24 8.73861 23.6978 7.28058 23.0935C5.82254 22.4892 4.55156 21.6451 3.46763 20.5612C2.38369 19.4772 1.53477 18.2014 0.920863 16.7338C0.306954 15.2662 0 13.6883 0 12C0 10.3118 0.306954 8.73861 0.920863 7.28058C1.53477 5.82254 2.38369 4.55156 3.46763 3.46763C4.55156 2.38369 5.82254 1.53477 7.28058 0.920863C8.73861 0.306954 10.3022 0 11.9712 0C13.6211 0 15.1799 0.306954 16.6475 0.920863C18.1151 1.53477 19.3909 2.3789 20.4748 3.45324C21.5588 4.52758 22.4173 5.79856 23.0504 7.26619C23.6835 8.73381 24 10.3118 24 12C24 13.6883 23.6835 15.2662 23.0504 16.7338C22.4173 18.2014 21.5588 19.4724 20.4748 20.5468C19.3909 21.6211 18.1199 22.4652 16.6619 23.0791C15.2038 23.693 13.6403 24 11.9712 24ZM11.9712 21.7842C14.7146 21.7842 17.036 20.8297 18.9353 18.9209C20.8345 17.012 21.7842 14.705 21.7842 12C21.7842 9.31415 20.8345 7.01199 18.9353 5.09353C17.036 3.17506 14.7146 2.21583 11.9712 2.21583C9.20863 2.21583 6.89209 3.17506 5.02158 5.09353C3.15108 7.01199 2.21583 9.31415 2.21583 12C2.21583 14.705 3.15108 17.012 5.02158 18.9209C6.89209 20.8297 9.20863 21.7842 11.9712 21.7842Z" fill="white"/>
              </svg>