<svg width="12" height="12" viewBox="0 0 24 24" fill="none" xmlns="http://www.w3.org/2000/svg">
              <path d="M7.19424 19.1079H9.06475V13.3525H11.8273L12.9784 15.6547H19.1079V8.34532H15.7122L14.5612 6.04317H7.19424V19.1079ZM14.2158 13.7842L13.0647 11.482H9.06475V7.91367H13.3237L14.4748 10.2158H17.2374V13.7842H14.2158ZM12 24C10.3118 24 8.73381 23.693 7.26619 23.0791C5.79856 22.4652 4.52758 21.6211 3.45324 20.5468C2.3789 19.4724 1.53477 18.2014 0.920863 16.7338C0.306954 15.2662 0 13.6883 0 12C0 10.3118 0.306954 8.73381 0.920863 7.26619C1.53477 5.79856 2.3789 4.52758 3.45324 3.45324C4.52758 2.3789 5.79856 1.53477 7.26619 0.920863C8.73381 0.306954 10.3118 0 12 0C13.6883 0 15.2662 0.306954 16.7338 0.920863C18.2014 1.53477 19.4724 2.3789 20.5468 3.45324C21.6211 4.52758 22.4652 5.79856 23.0791 7.26619C23.693 8.73381 24 10.3118 24 12C24 13.6883 23.693 15.2662 23.0791 16.7338C22.4652 18.2014 21.6211 19.4724 20.5468 20.5468C19.4724 21.6211 18.2014 22.4652 16.7338 23.0791C15.2662 23.693 13.6883 24 12 24ZM12 21.7842C14.7818 21.7842 17.1079 20.8489 18.9784 18.9784C20.8489 17.1079 21.7842 14.7818 21.7842 12C21.7842 9.21823 20.8489 6.89209 18.9784 5.02158C17.1079 3.15108 14.7818 2.21583 12 2.21583C9.21823 2.21583 6.89209 3.15108 5.02158 5.02158C3.15108 6.89209 2.21583 9.21823 2.21583 12C2.21583 14.7818 3.15108 17.1079 5.02158 18.9784C6.89209 20.8489 9.21823 21.7842 12 21.7842Z" fill="white"/>
              </svg>