<svg width="19" height="19" viewBox="0 0 19 19" fill="none" xmlns="http://www.w3.org/2000/svg">
              <path d="M3.05 14.65H15.725L11.85 9.4L8.525 13.725L6.175 10.525L3.05 14.65ZM1.925 18.75C1.40833 18.75 0.958333 18.5583 0.575 18.175C0.191667 17.7917 0 17.3417 0 16.825V1.925C0 1.40833 0.191667 0.958333 0.575 0.575C0.958333 0.191667 1.40833 0 1.925 0H16.825C17.3417 0 17.7917 0.191667 18.175 0.575C18.5583 0.958333 18.75 1.40833 18.75 1.925V16.825C18.75 17.3417 18.5583 17.7917 18.175 18.175C17.7917 18.5583 17.3417 18.75 16.825 18.75H1.925ZM1.925 16.825H16.825V1.925H1.925V16.825ZM1.925 1.925V16.825V1.925Z" fill="white"/>
              </svg>