<svg width="19" height="19" viewBox="0 0 19 19" fill="none" xmlns="http://www.w3.org/2000/svg">
          <path d="M17.325 18.725L10.7 12.1C10.2 12.5167 9.60417 12.8417 8.9125 13.075C8.22083 13.3083 7.5 13.425 6.75 13.425C4.85 13.425 3.25 12.7708 1.95 11.4625C0.65 10.1542 0 8.56667 0 6.7C0 4.83333 0.65 3.25 1.95 1.95C3.25 0.65 4.83333 0 6.7 0C8.56667 0 10.1542 0.65 11.4625 1.95C12.7708 3.25 13.425 4.83333 13.425 6.7C13.425 7.45 13.3125 8.15417 13.0875 8.8125C12.8625 9.47083 12.5167 10.1 12.05 10.7L18.725 17.325L17.325 18.725ZM6.725 11.475C8.05833 11.475 9.18333 11.0125 10.1 10.0875C11.0167 9.1625 11.475 8.03333 11.475 6.7C11.475 5.36667 11.0167 4.2375 10.1 3.3125C9.18333 2.3875 8.05833 1.925 6.725 1.925C5.35833 1.925 4.21667 2.3875 3.3 3.3125C2.38333 4.2375 1.925 5.36667 1.925 6.7C1.925 8.03333 2.38333 9.1625 3.3 10.0875C4.21667 11.0125 5.35833 11.475 6.725 11.475ZM7.55 9.6H5.825V7.55H3.775V5.8H5.825V3.775H7.55V5.8H9.575V7.55H7.55V9.6Z" fill="white"/>
          </svg>