 <svg width="20" height="16" viewBox="0 0 20 16" fill="none" xmlns="http://www.w3.org/2000/svg">
              <path d="M6.45 15.925V14.5H11.1L9.125 10C9.05833 9.91667 9.0125 9.8 8.9875 9.65C8.9625 9.5 8.95 9.35833 8.95 9.225V6.5H10.375V9.325L12.375 13.825C12.4417 13.975 12.4958 14.1208 12.5375 14.2625C12.5792 14.4042 12.6 14.5583 12.6 14.725C12.6 15.0917 12.4708 15.3833 12.2125 15.6C11.9542 15.8167 11.6333 15.925 11.25 15.925H6.45ZM4 9.4C3.4 9.4 2.8875 9.19167 2.4625 8.775C2.0375 8.35833 1.825 7.84167 1.825 7.225C1.825 6.625 2.0375 6.10833 2.4625 5.675C2.8875 5.24167 3.4 5.025 4 5.025C4.6 5.025 5.11667 5.2375 5.55 5.6625C5.98333 6.0875 6.2 6.60833 6.2 7.225C6.2 7.825 5.98333 8.3375 5.55 8.7625C5.11667 9.1875 4.6 9.4 4 9.4ZM15.3 9.4C14.7 9.4 14.1875 9.19167 13.7625 8.775C13.3375 8.35833 13.125 7.84167 13.125 7.225C13.125 6.625 13.3375 6.10833 13.7625 5.675C14.1875 5.24167 14.7 5.025 15.3 5.025C15.9 5.025 16.4167 5.2375 16.85 5.6625C17.2833 6.0875 17.5 6.60833 17.5 7.225C17.5 7.825 17.2833 8.3375 16.85 8.7625C16.4167 9.1875 15.9 9.4 15.3 9.4ZM0.95 2.25L0 1.25C0.483333 0.866667 1.03333 0.5625 1.65 0.3375C2.26667 0.1125 2.9 0 3.55 0C4.2 0 4.8375 0.1125 5.4625 0.3375C6.0875 0.5625 6.65 0.866667 7.15 1.25L6.175 2.25C5.79167 2 5.375 1.8 4.925 1.65C4.475 1.5 4.025 1.425 3.575 1.425C3.10833 1.425 2.65 1.5 2.2 1.65C1.75 1.8 1.33333 2 0.95 2.25ZM13.125 2.25L12.175 1.25C12.6583 0.866667 13.2125 0.5625 13.8375 0.3375C14.4625 0.1125 15.0917 0 15.725 0C16.375 0 17.0125 0.1125 17.6375 0.3375C18.2625 0.5625 18.825 0.866667 19.325 1.25L18.35 2.25C17.9667 2 17.55 1.8 17.1 1.65C16.65 1.5 16.2 1.425 15.75 1.425C15.2833 1.425 14.825 1.5 14.375 1.65C13.925 1.8 13.5083 2 13.125 2.25Z" fill="white"/>
              </svg>