  <svg width="12" height="12" viewBox="0 0 24 24" fill="none" xmlns="http://www.w3.org/2000/svg">
              <path d="M8.54676 16.8058H10.6187V7.19424H8.54676V16.8058ZM13.3813 16.8058H15.4532V7.19424H13.3813V16.8058ZM12 24C10.3693 24 8.82014 23.6835 7.35252 23.0504C5.88489 22.4173 4.60911 21.5588 3.52518 20.4748C2.44125 19.3909 1.58273 18.1151 0.94964 16.6475C0.316547 15.1799 0 13.6307 0 12C0 10.3501 0.316547 8.79616 0.94964 7.33813C1.58273 5.8801 2.44125 4.60911 3.52518 3.52518C4.60911 2.44125 5.88489 1.58273 7.35252 0.94964C8.82014 0.316547 10.3693 0 12 0C13.6499 0 15.2038 0.316547 16.6619 0.94964C18.1199 1.58273 19.3909 2.44125 20.4748 3.52518C21.5588 4.60911 22.4173 5.8801 23.0504 7.33813C23.6835 8.79616 24 10.3501 24 12C24 13.6307 23.6835 15.1799 23.0504 16.6475C22.4173 18.1151 21.5588 19.3909 20.4748 20.4748C19.3909 21.5588 18.1199 22.4173 16.6619 23.0504C15.2038 23.6835 13.6499 24 12 24ZM12 21.7842C14.6859 21.7842 16.988 20.8297 18.9065 18.9209C20.8249 17.012 21.7842 14.705 21.7842 12C21.7842 9.31415 20.8249 7.01199 18.9065 5.09353C16.988 3.17506 14.6859 2.21583 12 2.21583C9.29496 2.21583 6.98801 3.17506 5.07914 5.09353C3.17026 7.01199 2.21583 9.31415 2.21583 12C2.21583 14.705 3.17026 17.012 5.07914 18.9209C6.98801 20.8297 9.29496 21.7842 12 21.7842Z" fill="white"/>
              </svg>