<svg width="12" height="12" viewBox="0 0 21 24" fill="none" xmlns="http://www.w3.org/2000/svg">
                <path d="M10.2818 24C8.86364 24 7.52727 23.7318 6.27273 23.1955C5.01818 22.6591 3.92727 21.9273 3 21C2.07273 20.0727 1.34091 18.9818 0.804545 17.7273C0.268182 16.4727 0 15.1364 0 13.7182H2.1C2.1 15.9909 2.89545 17.9227 4.48636 19.5136C6.07727 21.1045 8.00909 21.9 10.2818 21.9C12.5545 21.9 14.4864 21.1 16.0773 19.5C17.6682 17.9 18.4636 15.9727 18.4636 13.7182C18.4636 11.4455 17.6909 9.51364 16.1455 7.92273C14.6 6.33182 12.6909 5.53636 10.4182 5.53636H9.84546L11.7818 7.47273L10.4182 8.86364L6 4.41818L10.4182 0L11.7818 1.36364L9.70909 3.40909H10.2818C11.7 3.40909 13.0364 3.68182 14.2909 4.22727C15.5455 4.77273 16.6364 5.50909 17.5636 6.43636C18.4909 7.36364 19.2227 8.45455 19.7591 9.70909C20.2955 10.9636 20.5636 12.3 20.5636 13.7182C20.5636 15.1364 20.2955 16.4727 19.7591 17.7273C19.2227 18.9818 18.4909 20.0727 17.5636 21C16.6364 21.9273 15.5455 22.6591 14.2909 23.1955C13.0364 23.7318 11.7 24 10.2818 24Z" fill="white"/>
              </svg>