<svg width="19" height="19" viewBox="0 0 19 19" fill="none" xmlns="http://www.w3.org/2000/svg">
          <path d="M9.42589 11.475C8.87589 11.475 8.39672 11.275 7.98839 10.875C7.58006 10.475 7.37589 9.99167 7.37589 9.425C7.37589 8.85833 7.58006 8.375 7.98839 7.975C8.39672 7.575 8.88422 7.375 9.45089 7.375C10.0009 7.375 10.4842 7.575 10.9009 7.975C11.3176 8.375 11.5259 8.85833 11.5259 9.425C11.5259 9.99167 11.3176 10.475 10.9009 10.875C10.4842 11.275 9.99256 11.475 9.42589 11.475ZM9.47589 18.85C6.80922 18.85 4.55506 17.9333 2.71339 16.1C0.871722 14.2667 -0.0324444 12.0333 0.000888889 9.4H1.95089C1.93422 11.5 2.65506 13.2792 4.11339 14.7375C5.57172 16.1958 7.35089 16.925 9.45089 16.925C11.5342 16.925 13.3009 16.1958 14.7509 14.7375C16.2009 13.2792 16.9259 11.5167 16.9259 9.45C16.9259 7.35 16.2009 5.57083 14.7509 4.1125C13.3009 2.65417 11.5426 1.925 9.47589 1.925C8.32589 1.925 7.23422 2.18333 6.20089 2.7C5.16756 3.21667 4.30089 3.9 3.60089 4.75H6.17589V6.575H0.400889V0.825H2.20089V3.4C3.06756 2.33333 4.14256 1.5 5.42589 0.9C6.70922 0.3 8.05922 0 9.47589 0C10.7759 0 11.9967 0.245833 13.1384 0.7375C14.2801 1.22917 15.2717 1.9 16.1134 2.75C16.9551 3.6 17.6259 4.6 18.1259 5.75C18.6259 6.9 18.8759 8.125 18.8759 9.425C18.8759 10.725 18.6259 11.95 18.1259 13.1C17.6259 14.25 16.9551 15.25 16.1134 16.1C15.2717 16.95 14.2801 17.6208 13.1384 18.1125C11.9967 18.6042 10.7759 18.85 9.47589 18.85Z" fill="white"/>
          </svg>