<svg width="20" height="19" viewBox="0 0 20 19" fill="none" xmlns="http://www.w3.org/2000/svg">
          <path d="M11.675 18.95V17.1C13.425 16.6333 14.85 15.6917 15.95 14.275C17.05 12.8583 17.6 11.25 17.6 9.45C17.6 7.66667 17.05 6.07083 15.95 4.6625C14.85 3.25417 13.425 2.31667 11.675 1.85V0C13.9417 0.466667 15.7958 1.5875 17.2375 3.3625C18.6792 5.1375 19.4 7.16667 19.4 9.45C19.4 11.7667 18.6833 13.8167 17.25 15.6C15.8167 17.3833 13.9583 18.5 11.675 18.95ZM0 12.825V6.175H4.225L9.675 0.7V18.3L4.225 12.825H0ZM11.175 13.85V5.125C12.1417 5.425 12.9125 5.97917 13.4875 6.7875C14.0625 7.59583 14.35 8.5 14.35 9.5C14.35 10.5 14.0625 11.3958 13.4875 12.1875C12.9125 12.9792 12.1417 13.5333 11.175 13.85ZM7.75 5.55L5.075 8.1H1.95V10.9H5.075L7.75 13.475V5.55Z" fill="white"/>
          </svg>