<svg className="mt-2" width="48" height="35" viewBox="0 0 57 57" fill="none" xmlns="http://www.w3.org/2000/svg">
                    <path d="M57 28.5C57 44.2401 44.2401 57 28.5 57C12.7599 57 0 44.2401 0 28.5C0 12.7599 12.7599 0 28.5 0C44.2401 0 57 12.7599 57 28.5ZM4.56 28.5C4.56 41.7217 15.2783 52.44 28.5 52.44C41.7217 52.44 52.44 41.7217 52.44 28.5C52.44 15.2783 41.7217 4.56 28.5 4.56C15.2783 4.56 4.56 15.2783 4.56 28.5Z" fill="black" fill-opacity="0.08"/>
                    <path d="M28.5 2.28001C28.5 1.02079 29.5224 -0.009477 30.7776 0.0911508C34.6366 0.40053 38.4005 1.4937 41.836 3.31268C45.9446 5.48808 49.4587 8.63554 52.0718 12.4806C54.6849 16.3257 56.3177 20.7517 56.8279 25.3726C57.338 29.9935 56.71 34.669 54.9986 38.9915C53.2872 43.3141 50.5444 47.1523 47.0093 50.1716C43.4742 53.1908 39.2541 55.2995 34.7171 56.3136C30.1801 57.3278 25.4638 57.2166 20.9796 55.9899C17.2301 54.9641 13.738 53.1844 10.7131 50.7683C9.72924 49.9824 9.68919 48.5315 10.5512 47.6136C11.4132 46.6956 12.85 46.6601 13.8458 47.4309C16.3197 49.3459 19.1511 50.7621 22.1829 51.5915C25.9496 52.622 29.9113 52.7153 33.7223 51.8634C37.5334 51.0116 41.0783 49.2403 44.0478 46.7041C47.0173 44.1679 49.3213 40.9438 50.7588 37.3129C52.1964 33.682 52.7239 29.7545 52.2954 25.873C51.8669 21.9914 50.4953 18.2736 48.3003 15.0437C46.1053 11.8139 43.1535 9.16999 39.7022 7.34265C36.9244 5.87186 33.8909 4.96599 30.7766 4.66849C29.5231 4.54875 28.5 3.53921 28.5 2.28001Z" fill="#1EB972"/>
                    <path opacity="0.38" d="M25.5533 18.7026V17H31.4467V18.7026H25.5533ZM27.6613 29.1907H29.3613V23.765H27.6613V29.1907ZM28.5 37C27.3213 37 26.2182 36.773 25.1907 36.319C24.1631 35.8649 23.264 35.2558 22.4933 34.4915C21.7227 33.7272 21.1144 32.8267 20.6687 31.79C20.2229 30.7533 20 29.6447 20 28.4642C20 27.2989 20.2229 26.1979 20.6687 25.1612C21.1144 24.1245 21.7227 23.2202 22.4933 22.4484C23.264 21.6765 24.1631 21.0673 25.1907 20.6209C26.2182 20.1744 27.3213 19.9512 28.5 19.9512C29.5427 19.9512 30.5136 20.1177 31.4127 20.4506C32.3118 20.7836 33.1164 21.2603 33.8267 21.8808L35.1187 20.5641L36.32 21.7673L35.028 23.0613C35.6022 23.7121 36.0744 24.4726 36.4447 25.3428C36.8149 26.213 37 27.2535 37 28.4642C37 29.6447 36.7771 30.7533 36.3313 31.79C35.8856 32.8267 35.2773 33.731 34.5067 34.5028C33.736 35.2747 32.8369 35.8838 31.8093 36.3303C30.7818 36.7768 29.6787 37 28.5 37ZM28.5 35.2293C30.3738 35.2293 31.968 34.5747 33.2827 33.2656C34.5973 31.9565 35.2547 30.356 35.2547 28.4642C35.2547 26.5876 34.5973 24.9947 33.2827 23.6856C31.968 22.3765 30.3738 21.7219 28.5 21.7219C26.6262 21.7219 25.032 22.3765 23.7173 23.6856C22.4027 24.9947 21.7453 26.5876 21.7453 28.4642C21.7453 30.356 22.4027 31.9565 23.7173 33.2656C25.032 34.5747 26.6262 35.2293 28.5 35.2293Z" fill="black"/>
                  </svg>